PathFileType	4	(X/Y/Z)	Walk10.trc
DataRate	CameraRate	NumFrames	NumMarkers	Units	OrigDataRate	OrigDataStartFrame	OrigNumFrames
200.000000	200.000000	5	57	mm	200.000000	788	868
Frame#	Times		RCAR		LMT5		RFHD		LTB3		RUA1		LTB2		RASI		LTB4		RElbow		RFA1		LACR1		LLFC		LUA1		LTH1		STRN		RACR1		RTH4		LToe		RTH3		RWRU		LCAR		RBHD		LASI		LTH3		LFHD		RLFC		CLAV		RBack		RTH2		C7		LTH4		LTH2		LElbow		RTB3		RTH1		LWRR		RTB4		RMT1		LFA1		LPSI		RLMAL		LWRU		LTB1		RPSI		RTB1		RTB2		LElbowM		RWRR		LBHD		LMT1		T10		RCAL		RMMAL		LMMAL		LLMAL		LCAL		RElbowM
			X1	Y1	Z1	X2	Y2	Z2	X3	Y3	Z3	X4	Y4	Z4	X5	Y5	Z5	X6	Y6	Z6	X7	Y7	Z7	X8	Y8	Z8	X9	Y9	Z9	X10	Y10	Z10	X11	Y11	Z11	X12	Y12	Z12	X13	Y13	Z13	X14	Y14	Z14	X15	Y15	Z15	X16	Y16	Z16	X17	Y17	Z17	X18	Y18	Z18	X19	Y19	Z19	X20	Y20	Z20	X21	Y21	Z21	X22	Y22	Z22	X23	Y23	Z23	X24	Y24	Z24	X25	Y25	Z25	X26	Y26	Z26	X27	Y27	Z27	X28	Y28	Z28	X29	Y29	Z29	X30	Y30	Z30	X31	Y31	Z31	X32	Y32	Z32	X33	Y33	Z33	X34	Y34	Z34	X35	Y35	Z35	X36	Y36	Z36	X37	Y37	Z37	X38	Y38	Z38	X39	Y39	Z39	X40	Y40	Z40	X41	Y41	Z41	X42	Y42	Z42	X43	Y43	Z43	X44	Y44	Z44	X45	Y45	Z45	X46	Y46	Z46	X47	Y47	Z47	X48	Y48	Z48	X49	Y49	Z49	X50	Y50	Z50	X51	Y51	Z51	X52	Y52	Z52	X53	Y53	Z53	X54	Y54	Z54	X55	Y55	Z55	X56	Y56	Z56	X57	Y57	Z57

788	3.94	972.78	783.11	336.08	1159.9	25.715	-49.173	1002.8	1579.7	36.539	1109.5	171.69	-13.224	878.8	1179.7	258.76	1091.7	258.52	-67.03	996.14	951.24	171.37	1110.1	259.39	-8.7	833.62	1059	290.11	859.87	913	309.54	887.94	1348.5	-153.34	1049.8	479.35	-91.501	851.81	1166	-238.01	960.34	743.81	-188.97	1014.5	1213.2	8.4531	891.68	1357.3	157.34	876.38	630.94	213.55	1259.1	26.937	2.9686	857.83	550.65	196.82	900.95	809.99	318.5	798.62	743.19	-286.1	855.18	1527.7	78.227	1023.2	947.6	-111.76	1012.2	591.31	-130.16	989.02	1577.9	-56.937	830.31	466.05	177.73	956.42	1317.8	1.5022	764.68	1304.2	116.95	930.64	624.76	191.77	817.05	1397.8	8.1872	985.29	669.25	-155.26	1037.8	693.55	-143.7	790.96	1048.7	-256.26	624.68	209.92	103.35	899.33	711.93	236.81	806.86	791.7	-244.63	694.13	260.38	104.27	542.98	53.58	50.767	762.11	917.41	-275.92	761.4	943.29	-27.662	508.27	165.11	121.34	753.17	802.78	-292.27	1112.1	346.01	-9.9791	758.43	944.8	62.171	764.17	311.83	111.2	676.64	281.1	160.83	766.6	1026.6	-178.99	959	829.24	281.06	839.46	1517.5	-62.698	1190.7	30.991	30.1	746.02	1130.7	11.155	455.14	199.54	77.468	532.62	160.26	42.494	1086.7	66.166	47.587	1078.5	58.003	-35.266	1012	31.937	-1.2861	829.84	1023.5	196.55
789	3.945	975.36	782.49	334.85	1159.8	25.784	-49.179	1009	1580.9	35.802	1110.4	171.41	-13.22	885.08	1180.8	258.14	1093.4	258.35	-67.128	1002.4	952.19	170.73	1111.7	259.13	-8.7496	839.36	1060.2	289.35	864.06	913.92	308.65	894.54	1349.5	-153.66	1053.4	479.64	-91.823	859.31	1166.9	-238.38	967.25	745.32	-189.51	1020.9	1214.4	7.9505	898.08	1358.4	156.82	886.16	630.67	213.45	1259.2	26.557	3.0426	868.91	549.95	197.31	903.9	810.52	317.71	809.37	743.72	-285.94	861.42	1528.8	77.538	1029.8	949.32	-112.21	1017.1	592.19	-130.65	995.31	1578.8	-57.674	842.38	465.14	178.68	962.77	1318.9	1.1219	771.06	1305.4	116.63	940.52	625.28	191.53	823.33	1398.8	7.691	991.18	670.46	-155.79	1043.7	694.11	-143.72	799.08	1049.3	-256.85	634.24	211.57	104.65	907.67	712.2	236.1	816.96	792.43	-244.56	704.69	260.93	105.89	547.79	55.668	51.176	771.37	917.64	-276.41	767.75	944.43	-27.998	516.98	168.61	122.29	763.51	802.97	-292.66	1114.4	345.75	-10.098	764.65	945.55	61.855	775.5	311.29	113.08	686.96	282.22	162.13	774.47	1027.2	-179.66	961.95	828.96	280	845.79	1518.2	-63.393	1190.6	30.954	30.245	752.31	1131.6	10.823	465.37	204.88	77.936	541.8	163.13	43.502	1086.8	66.153	47.652	1078.7	57.985	-35.15	1012	31.943	-1.367	835.39	1025	195.72
790	3.95	977.94	781.9	333.59	1159.8	25.853	-49.181	1015.3	1582	35.077	1111.3	171.15	-13.181	891.34	1181.8	257.56	1095	258.17	-67.213	1008.5	953.15	170.18	1113.1	258.87	-8.7684	845.07	1061.3	288.64	868.26	914.85	307.81	901.12	1350.5	-153.93	1056.9	479.87	-92.171	866.81	1167.9	-238.74	973.99	746.77	-190.03	1027.2	1215.6	7.4855	904.41	1359.6	156.36	895.88	630.53	213.38	1259.3	26.269	3.0983	879.98	549.4	197.81	906.86	811.1	316.97	820.28	744.32	-285.79	867.66	1530	76.877	1036.3	950.99	-112.63	1021.8	593	-131.16	1001.6	1579.7	-58.397	854.42	464.38	179.6	969.07	1320	0.78819	777.39	1306.6	116.33	950.37	625.92	191.39	829.58	1399.8	7.2365	996.9	671.62	-156.33	1049.5	694.57	-143.74	807.22	1049.9	-257.45	644.13	213.24	105.92	915.94	712.58	235.4	827.19	793.22	-244.5	715.54	261.56	107.47	553.29	57.88	51.656	780.7	917.91	-276.93	774.07	945.58	-28.413	526.14	172.04	123.25	773.98	803.2	-293.04	1116.5	345.48	-10.174	770.8	946.33	61.456	787.02	310.86	114.91	697.56	283.36	163.39	782.33	1027.7	-180.35	964.88	828.71	278.93	852.1	1519	-64.056	1190.5	30.951	30.36	758.56	1132.6	10.483	475.88	209.96	78.524	551.3	165.97	44.479	1086.8	66.138	47.695	1078.9	57.963	-35.037	1012	31.939	-1.4467	840.89	1026.5	194.95
791	3.955	980.53	781.33	332.3	1159.8	25.919	-49.18	1021.5	1583.1	34.368	1112	170.89	-13.107	897.57	1182.9	257	1096.6	257.97	-67.284	1014.5	954.1	169.71	1114.4	258.61	-8.7555	850.75	1062.4	287.98	872.48	915.8	307.02	907.67	1351.6	-154.16	1060.1	480.07	-92.543	874.32	1168.8	-239.09	980.56	748.15	-190.55	1033.4	1216.8	7.0603	910.68	1360.7	155.95	905.53	630.52	213.32	1259.3	26.056	3.1436	890.99	549.01	198.3	909.85	811.71	316.3	831.33	744.99	-285.65	873.89	1531.3	76.245	1042.8	952.61	-113.03	1026.2	593.75	-131.68	1007.9	1580.5	-59.101	866.42	463.8	180.48	975.33	1321.1	0.50075	783.67	1307.9	116.04	960.17	626.7	191.34	835.8	1400.8	6.8245	1002.4	672.73	-156.87	1055.1	694.94	-143.77	815.37	1050.6	-258.07	654.34	214.91	107.12	924.13	713.09	234.73	837.54	794.07	-244.44	726.68	262.26	109	559.53	60.185	52.213	790.1	918.21	-277.45	780.35	946.75	-28.909	535.71	175.37	124.2	784.55	803.46	-293.41	1118.4	345.2	-10.207	776.88	947.14	60.971	798.72	310.56	116.67	708.42	284.54	164.59	790.18	1028.3	-181.08	967.77	828.5	277.86	858.39	1519.8	-64.686	1190.5	30.972	30.45	764.75	1133.6	10.137	486.64	214.75	79.219	561.12	168.77	45.411	1086.8	66.12	47.717	1079	57.94	-34.928	1011.9	31.929	-1.5242	846.35	1027.9	194.23
792	3.96	983.14	780.79	330.99	1159.7	25.979	-49.178	1027.7	1584.3	33.676	1112.8	170.64	-13.001	903.78	1183.9	256.49	1098.1	257.78	-67.342	1020.4	955.04	169.33	1115.6	258.35	-8.7143	856.4	1063.5	287.35	876.72	916.74	306.28	914.19	1352.6	-154.35	1063.1	480.21	-92.934	881.83	1169.8	-239.43	986.94	749.46	-191.04	1039.7	1218	6.6766	916.89	1361.9	155.59	915.09	630.66	213.27	1259.3	25.905	3.186	901.91	548.79	198.79	912.88	812.35	315.68	842.54	745.73	-285.51	880.12	1532.5	75.644	1049.1	954.16	-113.4	1030.5	594.44	-132.2	1014.1	1581.4	-59.786	878.36	463.39	181.32	981.54	1322.2	0.2587	789.91	1309	115.77	969.89	627.61	191.4	842	1401.8	6.4559	1007.8	673.78	-157.43	1060.5	695.21	-143.8	823.54	1051.3	-258.7	664.86	216.61	108.25	932.2	713.72	234.09	848.01	794.98	-244.39	738.12	263.04	110.47	566.55	62.549	52.851	799.57	918.53	-278	786.59	947.93	-29.482	545.7	178.6	125.14	795.24	803.75	-293.78	1120.2	344.92	-10.201	782.91	947.99	60.404	810.57	310.4	118.35	719.53	285.75	165.74	798.02	1028.9	-181.84	970.64	828.33	276.79	864.67	1520.6	-65.282	1190.4	31.007	30.517	770.9	1134.6	9.787	497.6	219.22	80.005	571.25	171.53	46.292	1086.7	66.096	47.717	1079.2	57.915	-34.826	1011.8	31.914	-1.599	851.76	1029.4	193.58
